<svg xmlns="http://www.w3.org/2000/svg" viewBox="0 0 1024 1024" width="1024" height="1024">
  <defs>
    <linearGradient id="frame" x1="0%" y1="0%" x2="100%" y2="100%">
      <stop offset="0%" stop-color="#060913" />
      <stop offset="52%" stop-color="#130820" />
      <stop offset="100%" stop-color="#090611" />
    </linearGradient>
    <radialGradient id="glowBlue" cx="28%" cy="26%" r="48%">
      <stop offset="0%" stop-color="#67D5FF" stop-opacity="0.9" />
      <stop offset="50%" stop-color="#2F65FF" stop-opacity="0.35" />
      <stop offset="100%" stop-color="#2F65FF" stop-opacity="0" />
    </radialGradient>
    <radialGradient id="glowPink" cx="72%" cy="74%" r="48%">
      <stop offset="0%" stop-color="#FF4BE3" stop-opacity="0.92" />
      <stop offset="54%" stop-color="#7E3BFF" stop-opacity="0.34" />
      <stop offset="100%" stop-color="#7E3BFF" stop-opacity="0" />
    </radialGradient>
    <linearGradient id="wireA" x1="0%" y1="0%" x2="100%" y2="0%">
      <stop offset="0%" stop-color="#5FD5FF" stop-opacity="0.75" />
      <stop offset="100%" stop-color="#FF59E2" stop-opacity="0.75" />
    </linearGradient>
    <filter id="softBlur" x="-20%" y="-20%" width="140%" height="140%">
      <feGaussianBlur stdDeviation="18" />
    </filter>
  </defs>

  <rect width="1024" height="1024" rx="220" fill="url(#frame)" />
  <rect
    x="22"
    y="22"
    width="980"
    height="980"
    rx="198"
    fill="none"
    stroke="#FFFFFF"
    stroke-opacity="0.18"
    stroke-width="6"
  />
  <rect
    x="44"
    y="44"
    width="936"
    height="936"
    rx="180"
    fill="none"
    stroke="#6ED5FF"
    stroke-opacity="0.2"
    stroke-width="2"
  />

  <circle cx="360" cy="320" r="270" fill="url(#glowBlue)" filter="url(#softBlur)" />
  <circle cx="692" cy="708" r="300" fill="url(#glowPink)" filter="url(#softBlur)" />

  <g opacity="0.24">
    <path d="M120 0 V1024" stroke="#39AFFF" stroke-width="2" />
    <path d="M188 0 V1024" stroke="#39AFFF" stroke-width="1.6" />
    <path d="M260 0 V1024" stroke="#FF4BE3" stroke-width="1.4" />
    <path d="M340 0 V1024" stroke="#39AFFF" stroke-width="1.4" />
    <path d="M444 0 V1024" stroke="#39AFFF" stroke-width="1.8" />
    <path d="M564 0 V1024" stroke="#FF4BE3" stroke-width="1.4" />
    <path d="M662 0 V1024" stroke="#39AFFF" stroke-width="1.2" />
    <path d="M760 0 V1024" stroke="#FF4BE3" stroke-width="1.2" />
    <path d="M844 0 V1024" stroke="#39AFFF" stroke-width="1.6" />
    <path d="M916 0 V1024" stroke="#FF4BE3" stroke-width="1.6" />
  </g>

  <g fill="none" stroke="url(#wireA)" stroke-linecap="round" opacity="0.88">
    <ellipse cx="512" cy="514" rx="292" ry="102" stroke-width="4" />
    <ellipse cx="512" cy="514" rx="280" ry="142" stroke-width="3.6" />
    <ellipse cx="512" cy="514" rx="266" ry="176" stroke-width="3.2" />
    <ellipse cx="512" cy="514" rx="244" ry="210" stroke-width="2.8" />
    <ellipse cx="512" cy="514" rx="216" ry="236" stroke-width="2.4" />
    <path d="M292 220 C386 302 386 726 292 808" stroke-width="2.6" />
    <path d="M364 180 C446 282 446 746 364 848" stroke-width="2.3" />
    <path d="M438 156 C504 272 504 756 438 872" stroke-width="2.1" />
    <path d="M512 148 C552 272 552 756 512 880" stroke-width="2.1" />
    <path d="M586 156 C520 272 520 756 586 872" stroke-width="2.1" />
    <path d="M660 180 C578 282 578 746 660 848" stroke-width="2.3" />
    <path d="M732 220 C638 302 638 726 732 808" stroke-width="2.6" />
  </g>

  <g fill="none" stroke-linecap="round" opacity="0.26">
    <path d="M128 128 h768" stroke="#FFFFFF" stroke-width="7" />
    <path d="M108 108 h808" stroke="#7CD8FF" stroke-width="4" />
    <path d="M152 152 h720" stroke="#48AFFF" stroke-width="3" />
    <path d="M176 176 h672" stroke="#48AFFF" stroke-width="3" />
    <path d="M200 200 h624" stroke="#48AFFF" stroke-width="3" />
    <path d="M224 224 h576" stroke="#48AFFF" stroke-width="3" />
    <path d="M248 248 h528" stroke="#48AFFF" stroke-width="3" />
    <path d="M272 272 h480" stroke="#48AFFF" stroke-width="3" />
    <path d="M296 296 h432" stroke="#48AFFF" stroke-width="3" />
    <path d="M320 320 h384" stroke="#48AFFF" stroke-width="3" />
    <path d="M344 344 h336" stroke="#48AFFF" stroke-width="3" />
  </g>
</svg>
